<?xml version="1.0" standalone="no"?>
<!DOCTYPE svg PUBLIC "-//W3C//DTD SVG 20010904//EN"
 "http://www.w3.org/TR/2001/REC-SVG-20010904/DTD/svg10.dtd">
<svg version="1.0" xmlns="http://www.w3.org/2000/svg"
 width="800.000000pt" height="600.000000pt" viewBox="0 0 800.000000 600.000000"
 preserveAspectRatio="xMidYMid meet">

<g transform="translate(0.000000,600.000000) scale(0.100000,-0.100000)"
fill="#000000" stroke="none">
<path d="M3851 4764 c-18 -15 -33 -39 -37 -60 -5 -27 -10 -34 -23 -29 -9 4
-38 9 -66 12 -41 4 -55 1 -77 -16 -35 -28 -43 -69 -23 -116 8 -21 14 -39 13
-40 -2 0 -29 -9 -61 -19 -248 -75 -450 -241 -598 -489 l-49 -82 -58 0 c-41 -1
-69 -8 -102 -25 -118 -66 -147 -251 -57 -364 l24 -29 -127 -126 c-137 -137
-216 -244 -295 -400 -88 -176 -150 -371 -176 -549 -17 -124 -7 -358 21 -452
54 -187 174 -313 332 -350 66 -15 175 -12 242 7 45 13 61 14 64 5 10 -32 100
-138 146 -172 57 -43 145 -87 194 -96 17 -3 32 -7 32 -8 0 0 -4 -17 -10 -36
-12 -43 2 -93 33 -115 32 -23 702 -22 734 0 26 18 43 72 43 138 0 46 1 47 30
47 29 0 30 -1 30 -47 0 -66 17 -120 43 -138 32 -22 702 -23 734 0 30 21 46 75
33 109 -15 40 -13 43 23 50 48 9 136 53 193 96 46 34 136 140 146 172 3 9 19
8 64 -5 67 -19 176 -22 242 -7 70 17 131 50 192 106 111 103 159 237 167 466
8 211 -23 389 -102 599 -91 237 -199 405 -375 580 l-127 126 24 29 c90 113 61
298 -57 364 -33 17 -61 24 -102 25 l-58 0 -49 82 c-131 220 -303 374 -515 460
-72 29 -168 54 -304 80 -41 8 -44 11 -66 64 -12 30 -35 72 -51 93 -64 84 -173
112 -234 60z m135 -53 c39 -24 86 -95 108 -163 l16 -54 88 -12 c312 -42 563
-195 728 -443 58 -87 133 -247 179 -379 44 -129 80 -186 151 -240 83 -65 213
-206 278 -304 149 -225 256 -529 272 -777 l7 -95 -39 -33 c-88 -73 -242 -127
-378 -133 l-69 -3 -2 180 c-3 435 -4 444 -23 454 -43 23 -44 10 -43 -327 2
-245 -2 -342 -13 -415 -41 -253 -157 -430 -336 -511 -87 -39 -136 -42 -216
-13 -120 43 -477 104 -540 92 -18 -3 -50 -21 -70 -40 -20 -19 -38 -35 -40 -35
-2 0 -4 29 -4 64 l0 63 82 8 c199 17 403 97 518 203 79 72 110 123 91 146 -18
21 -28 20 -49 -6 -104 -129 -201 -192 -376 -242 -291 -85 -638 -39 -859 113
-39 26 -78 65 -129 129 -21 26 -31 27 -49 6 -19 -23 12 -74 91 -146 115 -106
319 -186 518 -203 l82 -8 0 -63 c0 -35 -2 -64 -4 -64 -2 0 -20 16 -40 35 -20
19 -52 37 -70 40 -63 12 -420 -49 -540 -92 -80 -29 -129 -26 -216 13 -179 81
-295 258 -336 511 -11 73 -15 170 -13 415 1 335 -1 350 -41 328 -15 -8 -18
-41 -24 -258 -4 -136 -4 -278 0 -315 l7 -67 -40 0 c-136 0 -324 64 -417 141
l-39 33 7 95 c16 248 123 552 272 777 65 98 195 239 278 304 71 54 107 111
151 240 51 149 144 334 214 427 140 186 300 295 531 362 109 31 121 47 70 96
-32 31 -40 72 -15 82 9 3 45 -4 81 -17 82 -27 94 -23 94 32 0 81 48 110 116
69z m-1086 -855 c0 -2 -7 -20 -16 -41 -14 -35 -16 -36 -33 -21 -36 32 -80 5
-53 -33 42 -59 43 -66 19 -133 -13 -37 -28 -63 -36 -63 -22 0 -61 83 -61 128
0 54 35 124 74 148 26 16 106 27 106 15z m2306 -15 c39 -24 74 -94 74 -148 0
-45 -39 -128 -61 -128 -8 0 -23 26 -36 63 -24 67 -23 74 19 133 27 38 -17 65
-53 33 -17 -15 -19 -14 -33 21 -9 21 -16 39 -16 41 0 12 80 1 106 -15z m-2950
-1726 c108 -65 245 -105 364 -105 l66 0 11 -72 c13 -81 10 -88 -44 -88 -40 0
-52 17 -24 37 28 19 24 57 -5 61 -27 4 -74 -35 -113 -95 -37 -55 -39 -79 -9
-89 16 -5 26 0 40 19 18 24 18 24 62 9 36 -13 53 -14 85 -6 38 11 41 10 50
-15 5 -14 12 -33 15 -42 12 -27 -48 -44 -154 -44 -83 1 -103 4 -157 29 -110
50 -193 161 -227 301 -15 65 -27 135 -22 135 2 0 30 -16 62 -35z m3547 -2
c-36 -263 -169 -414 -377 -430 -92 -7 -192 18 -181 45 4 9 11 29 16 43 9 25
12 26 50 15 32 -8 49 -7 85 6 44 15 44 15 62 -9 14 -19 24 -24 40 -19 29 10
28 33 -6 87 -37 57 -89 101 -116 97 -29 -4 -33 -42 -5 -61 28 -20 16 -37 -24
-37 -54 0 -57 7 -44 88 l11 72 66 0 c119 0 258 41 360 104 30 19 58 34 62 35
4 1 4 -16 1 -36z m-1962 -643 c6 0 21 -12 34 -26 21 -23 25 -37 25 -93 0 -39
-5 -72 -12 -79 -7 -7 -44 -12 -95 -12 -94 0 -93 -1 -72 89 8 36 7 47 -5 59 -8
8 -21 12 -30 9 -18 -7 -36 -67 -36 -119 l0 -38 -51 0 -52 0 6 55 c5 47 3 57
-13 65 -30 16 -50 -13 -50 -71 l0 -49 -55 0 -54 0 2 37 c2 30 -2 38 -17 41
-23 5 -46 -22 -46 -55 0 -20 -5 -23 -34 -23 -49 0 -66 9 -66 35 0 58 122 108
345 144 72 11 155 24 185 29 30 5 61 8 68 6 8 -2 18 -4 23 -4z m521 -20 c288
-42 418 -90 418 -155 0 -26 -17 -35 -66 -35 -29 0 -34 3 -34 23 0 33 -23 60
-46 55 -15 -3 -19 -11 -17 -41 l2 -37 -54 0 -55 0 0 49 c0 58 -20 87 -50 71
-16 -8 -18 -18 -13 -65 l6 -55 -52 0 -51 0 0 38 c0 52 -18 112 -36 119 -9 3
-22 -1 -30 -9 -12 -12 -13 -23 -5 -59 21 -90 22 -89 -72 -89 -51 0 -88 5 -95
12 -19 19 -15 139 6 165 20 26 59 43 87 37 11 -2 82 -13 157 -24z"/>
<path d="M3605 4203 c-250 -33 -457 -305 -443 -583 8 -150 66 -221 188 -228
65 -4 69 -3 183 57 65 34 140 66 167 72 65 14 138 -1 230 -47 l70 -35 70 35
c92 46 165 61 230 47 27 -6 102 -38 167 -72 114 -60 118 -61 183 -57 122 7
180 78 188 228 17 334 -269 629 -563 580 -86 -14 -175 -61 -229 -121 l-46 -51
-46 51 c-54 60 -143 107 -229 121 -61 10 -66 10 -120 3z m182 -84 c45 -17 73
-37 124 -90 44 -46 74 -69 89 -69 15 0 45 23 89 69 87 90 148 115 267 109 105
-5 176 -39 260 -122 180 -180 220 -506 68 -556 -51 -17 -84 -8 -220 61 -111
57 -127 62 -200 67 -70 4 -83 8 -109 33 -41 38 -95 59 -155 59 -60 0 -114 -21
-155 -59 -26 -25 -39 -29 -109 -33 -73 -5 -89 -10 -200 -67 -136 -69 -169 -78
-220 -61 -109 36 -126 223 -36 406 63 130 164 226 273 259 66 21 167 18 234
-6z m280 -534 c41 -18 42 -17 -20 -49 l-47 -23 -47 23 c-61 32 -61 31 -22 48
44 20 91 20 136 1z"/>
<path d="M3508 3859 c-91 -47 -89 -177 3 -225 46 -24 131 -15 165 17 41 37 57
82 44 128 -23 88 -125 126 -212 80z m156 -32 c22 -16 18 -55 -6 -71 -40 -24
-80 44 -42 71 10 7 21 13 24 13 3 0 14 -6 24 -13z"/>
<path d="M4360 3869 c-66 -27 -102 -102 -77 -161 24 -55 60 -81 120 -86 89 -7
157 47 157 126 0 94 -107 158 -200 121z m24 -42 c22 -16 18 -55 -6 -71 -40
-24 -80 44 -42 71 10 7 21 13 24 13 3 0 14 -6 24 -13z"/>
<path d="M3644 3431 c-18 -11 -35 -24 -38 -30 -5 -7 -12 -7 -25 1 -49 31 -66
-25 -30 -99 117 -241 781 -241 898 0 36 74 19 130 -29 99 -14 -9 -21 -8 -31 4
-18 22 -64 44 -90 44 -13 0 -33 -10 -46 -22 -23 -22 -30 -22 -253 -22 -223 0
-230 0 -253 22 -29 27 -62 28 -103 3z m58 -96 c10 -83 55 -117 104 -80 27 20
58 18 79 -5 10 -11 28 -20 40 -20 12 0 30 9 40 20 10 11 26 20 35 20 9 0 25
-9 35 -20 10 -11 28 -20 40 -20 12 0 30 9 40 20 21 23 52 25 79 5 49 -37 94
-3 104 80 5 53 18 56 57 15 l29 -30 -25 -26 c-62 -67 -195 -107 -359 -107
-168 0 -300 41 -364 112 -19 21 -19 22 9 51 39 41 52 38 57 -15z m122 8 c3 -4
-6 -12 -21 -18 -27 -11 -42 -5 -43 18 0 9 54 9 64 0z m416 0 c-1 -23 -16 -29
-43 -18 -15 6 -24 14 -21 18 10 9 64 9 64 0z m-285 -20 c-16 -9 -31 -15 -32
-14 -2 1 -17 8 -35 16 -33 14 -33 14 32 14 l65 0 -30 -16z m155 1 c-39 -17
-36 -17 -70 2 -23 12 -20 13 40 13 l65 0 -35 -15z"/>
<path d="M2862 3163 c-17 -33 -23 -128 -12 -199 39 -247 232 -385 431 -309 12
5 18 -2 23 -26 32 -160 207 -274 368 -240 50 11 54 11 68 -11 63 -95 133 -139
234 -146 39 -2 89 1 112 7 55 15 118 62 156 117 30 42 34 44 67 37 63 -14 154
-7 203 15 89 39 167 132 184 221 5 24 11 31 23 26 116 -45 243 -15 325 76 78
85 125 239 110 358 -8 72 -20 93 -47 89 -21 -3 -22 -7 -19 -103 3 -80 -1 -113
-17 -167 -54 -171 -199 -251 -334 -184 -30 14 -59 26 -65 26 -17 0 -32 -34
-32 -72 0 -45 -44 -131 -83 -164 -73 -61 -176 -81 -254 -49 -57 24 -67 20 -99
-42 -89 -174 -319 -174 -408 0 -32 62 -42 66 -99 42 -78 -32 -181 -12 -254 49
-39 33 -83 119 -83 164 0 38 -15 72 -32 72 -6 0 -35 -12 -65 -26 -96 -48 -203
-21 -274 68 -58 74 -81 159 -77 283 3 96 2 100 -19 103 -13 2 -25 -4 -31 -15z"/>
</g>
</svg>
